# xmcd CD database file
#
# Track frame offsets:
#	150
#	19886
#	39625
#	59512
#	77562
#	101400
#	122987
#
# Disc length: 1921 seconds
#
# Revision: 1
# Processed by: cddbd v1.5.2PL0 Copyright (c) Steve Scherf et al.
# Submitted via: CDex 1.51
#
DISCID=57077f07
DTITLE=Rippingtons - Life in the tropics
DYEAR=1900
DGENRE=Jazz
TTITLE0=Club Paradiso
TTITLE1=Carribbean Breeze
TTITLE2=Cruisin down ocean drive
TTITLE3=Be Cool
TTITLE4=Rhythm of your life
TTITLE5=Love child
TTITLE6=Avenida del mar
EXTD=
EXTT0=
EXTT1=
EXTT2=
EXTT3=
EXTT4=
EXTT5=
EXTT6=
PLAYORDER=
